<svg width="110" height="110" viewBox="0 0 110 110" fill="none" xmlns="http://www.w3.org/2000/svg">
<rect width="110" height="110" rx="55" fill="#CBCBCB"/>
<path d="M34 51.2465C34 45.025 39.0344 39.9858 45.25 39.9858H46C47.6594 39.9858 49 41.3277 49 42.9887C49 44.6496 47.6594 45.9915 46 45.9915H45.25C42.3531 45.9915 40 48.3469 40 51.2465V51.9972H46C49.3094 51.9972 52 54.6904 52 58.0029V64.0086C52 67.3211 49.3094 70.0143 46 70.0143H40C36.6906 70.0143 34 67.3211 34 64.0086V61.0057V58.0029V51.2465ZM58 51.2465C58 45.025 63.0344 39.9858 69.25 39.9858H70C71.6594 39.9858 73 41.3277 73 42.9887C73 44.6496 71.6594 45.9915 70 45.9915H69.25C66.3531 45.9915 64 48.3469 64 51.2465V51.9972H70C73.3094 51.9972 76 54.6904 76 58.0029V64.0086C76 67.3211 73.3094 70.0143 70 70.0143H64C60.6906 70.0143 58 67.3211 58 64.0086V61.0057V58.0029V51.2465Z" fill="white"/>
</svg>
