<svg width="80" height="80" viewBox="0 0 80 80" fill="none" xmlns="http://www.w3.org/2000/svg">
<rect width="80" height="80" rx="40" fill="white"/>
<path d="M56.5 42.9492C56.5 47.8375 52.5444 51.7969 47.6607 51.7969H47.0714C45.7676 51.7969 44.7143 50.7425 44.7143 49.4375C44.7143 48.1325 45.7676 47.0781 47.0714 47.0781H47.6607C49.9368 47.0781 51.7857 45.2275 51.7857 42.9492V42.3594H47.0714C44.4712 42.3594 42.3571 40.2433 42.3571 37.6406V32.9219C42.3571 30.3192 44.4712 28.2031 47.0714 28.2031H51.7857C54.3859 28.2031 56.5 30.3192 56.5 32.9219V35.2812V37.6406V42.9492ZM37.6429 42.9492C37.6429 47.8375 33.6873 51.7969 28.8036 51.7969H28.2143C26.9105 51.7969 25.8571 50.7425 25.8571 49.4375C25.8571 48.1325 26.9105 47.0781 28.2143 47.0781H28.8036C31.0797 47.0781 32.9286 45.2275 32.9286 42.9492V42.3594H28.2143C25.6141 42.3594 23.5 40.2433 23.5 37.6406V32.9219C23.5 30.3192 25.6141 28.2031 28.2143 28.2031H32.9286C35.5288 28.2031 37.6429 30.3192 37.6429 32.9219V35.2812V37.6406V42.9492Z" fill="#CBCBCB"/>
</svg>
